<svg width="279" height="112" viewBox="0 0 279 112" fill="none" xmlns="http://www.w3.org/2000/svg">
<rect width="279" height="112" rx="12" fill="white"/>
<g clip-path="url(#clip0_193_3465)">
<path d="M33.6587 37.9795C33.3364 37.9442 33.0482 38.1826 33.0139 38.5114L32.2527 45.8024H21.7476L20.9967 38.6094C20.9623 38.2805 20.6738 38.0421 20.3519 38.0775C20.0301 38.1126 19.7971 38.4076 19.8315 38.7364L20.6383 46.4648C20.67 46.7691 20.9213 47 21.2209 47H32.7795C33.0791 47 33.3304 46.7691 33.3621 46.4648L34.1792 38.6385C34.2134 38.3097 33.9804 38.0146 33.6587 37.9795Z" fill="#303A5B"/>
<path d="M36.3745 20.6097H35.0635L34.0313 18.0162C33.9415 17.7906 33.7269 17.6431 33.4886 17.6431H29.8936L28.8869 16.5326C28.7759 16.4102 28.6202 16.3407 28.457 16.3407H25.543C25.3798 16.3407 25.2241 16.4102 25.1132 16.5326L24.1065 17.6431H20.5115C20.2732 17.6431 20.0586 17.7906 19.9688 18.0162L18.9365 20.6097H17.6255C17.3019 20.6097 17.0396 20.8777 17.0396 21.2085V23.7818C17.0396 24.1125 17.3019 24.3806 17.6255 24.3806H18.3326L19.0682 31.4268C19.1025 31.7556 19.3911 31.9939 19.7129 31.9586C20.0347 31.9235 20.2677 31.6285 20.2334 31.2997L19.511 24.3806H34.4889L33.7641 31.3227C33.7298 31.6516 33.9628 31.9465 34.2846 31.9816C34.3057 31.984 34.3267 31.9851 34.3474 31.9851C34.6431 31.9851 34.8973 31.757 34.9293 31.4498L35.6673 24.3806H36.3744C36.698 24.3806 36.9604 24.1125 36.9604 23.7818V21.2085C36.9605 20.8777 36.6982 20.6097 36.3745 20.6097ZM20.9057 18.8407H24.3624C24.5255 18.8407 24.6813 18.7712 24.7921 18.6488L25.7989 17.5383H28.2011L29.2079 18.6488C29.3188 18.7711 29.4745 18.8407 29.6377 18.8407H33.0944L33.7984 20.6097H20.2016L20.9057 18.8407ZM35.7886 23.1829H18.2114V21.8073H35.7886V23.1829Z" fill="#303A5B"/>
<path d="M18.03 29.4497L19.1984 40.6412H34.8014L35.9698 29.4497H18.03ZM26.9999 37.2951C25.8091 37.2951 24.8437 36.3085 24.8437 35.0915C24.8437 33.8745 25.8091 32.8879 26.9999 32.8879C28.1908 32.8879 29.1562 33.8745 29.1562 35.0915C29.1562 36.3085 28.1908 37.2951 26.9999 37.2951Z" fill="#976A50"/>
<path d="M27 37.894C25.4879 37.894 24.2578 36.6368 24.2578 35.0915C24.2578 33.5462 25.4879 32.2891 27 32.2891C28.5121 32.2891 29.7422 33.5462 29.7422 35.0915C29.7422 36.6368 28.5121 37.894 27 37.894ZM27 33.4868C26.1342 33.4868 25.4297 34.2067 25.4297 35.0916C25.4297 35.9765 26.1341 36.6964 27 36.6964C27.8659 36.6964 28.5703 35.9765 28.5703 35.0916C28.5703 34.2067 27.8658 33.4868 27 33.4868Z" fill="#303A5B"/>
</g>
<g clip-path="url(#clip1_193_3465)">
<path d="M65.6587 37.9795C65.3364 37.9442 65.0482 38.1826 65.0139 38.5114L64.2527 45.8024H53.7476L52.9967 38.6094C52.9623 38.2805 52.6738 38.0421 52.3519 38.0775C52.0301 38.1126 51.7971 38.4076 51.8315 38.7364L52.6383 46.4648C52.67 46.7691 52.9213 47 53.2209 47H64.7795C65.0791 47 65.3304 46.7691 65.3621 46.4648L66.1792 38.6385C66.2134 38.3097 65.9804 38.0146 65.6587 37.9795Z" fill="#303A5B"/>
<path d="M68.3745 20.6097H67.0635L66.0313 18.0162C65.9415 17.7906 65.7269 17.6431 65.4886 17.6431H61.8936L60.8869 16.5326C60.7759 16.4102 60.6202 16.3407 60.457 16.3407H57.543C57.3798 16.3407 57.2241 16.4102 57.1132 16.5326L56.1065 17.6431H52.5115C52.2732 17.6431 52.0586 17.7906 51.9688 18.0162L50.9365 20.6097H49.6255C49.3019 20.6097 49.0396 20.8777 49.0396 21.2085V23.7818C49.0396 24.1125 49.3019 24.3806 49.6255 24.3806H50.3326L51.0682 31.4268C51.1025 31.7556 51.3911 31.9939 51.7129 31.9586C52.0347 31.9235 52.2677 31.6285 52.2334 31.2997L51.511 24.3806H66.4889L65.7641 31.3227C65.7298 31.6516 65.9628 31.9465 66.2846 31.9816C66.3057 31.984 66.3267 31.9851 66.3474 31.9851C66.6431 31.9851 66.8973 31.757 66.9293 31.4498L67.6673 24.3806H68.3744C68.698 24.3806 68.9604 24.1125 68.9604 23.7818V21.2085C68.9605 20.8777 68.6982 20.6097 68.3745 20.6097ZM52.9057 18.8407H56.3624C56.5255 18.8407 56.6813 18.7712 56.7921 18.6488L57.7989 17.5383H60.2011L61.2079 18.6488C61.3188 18.7711 61.4745 18.8407 61.6377 18.8407H65.0944L65.7984 20.6097H52.2016L52.9057 18.8407ZM67.7886 23.1829H50.2114V21.8073H67.7886V23.1829Z" fill="#303A5B"/>
<path d="M50.03 29.4497L51.1984 40.6412H66.8014L67.9698 29.4497H50.03ZM58.9999 37.2951C57.8091 37.2951 56.8437 36.3085 56.8437 35.0915C56.8437 33.8745 57.8091 32.8879 58.9999 32.8879C60.1908 32.8879 61.1562 33.8745 61.1562 35.0915C61.1562 36.3085 60.1908 37.2951 58.9999 37.2951Z" fill="#976A50"/>
<path d="M59 37.894C57.4879 37.894 56.2578 36.6368 56.2578 35.0915C56.2578 33.5462 57.4879 32.2891 59 32.2891C60.5121 32.2891 61.7422 33.5462 61.7422 35.0915C61.7422 36.6368 60.5121 37.894 59 37.894ZM59 33.4868C58.1342 33.4868 57.4297 34.2067 57.4297 35.0916C57.4297 35.9765 58.1341 36.6964 59 36.6964C59.8659 36.6964 60.5703 35.9765 60.5703 35.0916C60.5703 34.2067 59.8658 33.4868 59 33.4868Z" fill="#303A5B"/>
</g>
<g clip-path="url(#clip2_193_3465)">
<path d="M97.6587 37.9795C97.3364 37.9442 97.0482 38.1826 97.0139 38.5114L96.2527 45.8024H85.7476L84.9967 38.6094C84.9623 38.2805 84.6738 38.0421 84.3519 38.0775C84.0301 38.1126 83.7971 38.4076 83.8315 38.7364L84.6383 46.4648C84.67 46.7691 84.9213 47 85.2209 47H96.7795C97.0791 47 97.3304 46.7691 97.3621 46.4648L98.1792 38.6385C98.2134 38.3097 97.9804 38.0146 97.6587 37.9795Z" fill="#303A5B"/>
<path d="M100.375 20.6097H99.0635L98.0313 18.0162C97.9415 17.7906 97.7269 17.6431 97.4886 17.6431H93.8936L92.8869 16.5326C92.7759 16.4102 92.6202 16.3407 92.457 16.3407H89.543C89.3798 16.3407 89.2241 16.4102 89.1132 16.5326L88.1065 17.6431H84.5115C84.2732 17.6431 84.0586 17.7906 83.9688 18.0162L82.9365 20.6097H81.6255C81.3019 20.6097 81.0396 20.8777 81.0396 21.2085V23.7818C81.0396 24.1125 81.3019 24.3806 81.6255 24.3806H82.3326L83.0682 31.4268C83.1025 31.7556 83.3911 31.9939 83.7129 31.9586C84.0347 31.9235 84.2677 31.6285 84.2334 31.2997L83.511 24.3806H98.4889L97.7641 31.3227C97.7298 31.6516 97.9628 31.9465 98.2846 31.9816C98.3057 31.984 98.3267 31.9851 98.3474 31.9851C98.6431 31.9851 98.8973 31.757 98.9293 31.4498L99.6673 24.3806H100.374C100.698 24.3806 100.96 24.1125 100.96 23.7818V21.2085C100.96 20.8777 100.698 20.6097 100.375 20.6097ZM84.9057 18.8407H88.3624C88.5255 18.8407 88.6813 18.7712 88.7921 18.6488L89.7989 17.5383H92.2011L93.2079 18.6488C93.3188 18.7711 93.4745 18.8407 93.6377 18.8407H97.0944L97.7984 20.6097H84.2016L84.9057 18.8407ZM99.7886 23.1829H82.2114V21.8073H99.7886V23.1829Z" fill="#303A5B"/>
<path d="M82.03 29.4497L83.1984 40.6412H98.8014L99.9698 29.4497H82.03ZM90.9999 37.2951C89.8091 37.2951 88.8437 36.3085 88.8437 35.0915C88.8437 33.8745 89.8091 32.8879 90.9999 32.8879C92.1908 32.8879 93.1562 33.8745 93.1562 35.0915C93.1562 36.3085 92.1908 37.2951 90.9999 37.2951Z" fill="#976A50"/>
<path d="M91 37.894C89.4879 37.894 88.2578 36.6368 88.2578 35.0915C88.2578 33.5462 89.4879 32.2891 91 32.2891C92.5121 32.2891 93.7422 33.5462 93.7422 35.0915C93.7422 36.6368 92.5121 37.894 91 37.894ZM91 33.4868C90.1342 33.4868 89.4297 34.2067 89.4297 35.0916C89.4297 35.9765 90.1341 36.6964 91 36.6964C91.8659 36.6964 92.5703 35.9765 92.5703 35.0916C92.5703 34.2067 91.8658 33.4868 91 33.4868Z" fill="#303A5B"/>
</g>
<g clip-path="url(#clip3_193_3465)">
<path d="M129.659 37.9795C129.336 37.9442 129.048 38.1826 129.014 38.5114L128.253 45.8024H117.748L116.997 38.6094C116.962 38.2805 116.674 38.0421 116.352 38.0775C116.03 38.1126 115.797 38.4076 115.831 38.7364L116.638 46.4648C116.67 46.7691 116.921 47 117.221 47H128.78C129.079 47 129.33 46.7691 129.362 46.4648L130.179 38.6385C130.213 38.3097 129.98 38.0146 129.659 37.9795Z" fill="#303A5B"/>
<path d="M132.375 20.6097H131.064L130.031 18.0162C129.942 17.7906 129.727 17.6431 129.489 17.6431H125.894L124.887 16.5326C124.776 16.4102 124.62 16.3407 124.457 16.3407H121.543C121.38 16.3407 121.224 16.4102 121.113 16.5326L120.106 17.6431H116.512C116.273 17.6431 116.059 17.7906 115.969 18.0162L114.937 20.6097H113.625C113.302 20.6097 113.04 20.8777 113.04 21.2085V23.7818C113.04 24.1125 113.302 24.3806 113.625 24.3806H114.333L115.068 31.4268C115.103 31.7556 115.391 31.9939 115.713 31.9586C116.035 31.9235 116.268 31.6285 116.233 31.2997L115.511 24.3806H130.489L129.764 31.3227C129.73 31.6516 129.963 31.9465 130.285 31.9816C130.306 31.984 130.327 31.9851 130.347 31.9851C130.643 31.9851 130.897 31.757 130.929 31.4498L131.667 24.3806H132.374C132.698 24.3806 132.96 24.1125 132.96 23.7818V21.2085C132.96 20.8777 132.698 20.6097 132.375 20.6097ZM116.906 18.8407H120.362C120.526 18.8407 120.681 18.7712 120.792 18.6488L121.799 17.5383H124.201L125.208 18.6488C125.319 18.7711 125.475 18.8407 125.638 18.8407H129.094L129.798 20.6097H116.202L116.906 18.8407ZM131.789 23.1829H114.211V21.8073H131.789V23.1829Z" fill="#303A5B"/>
<path d="M114.03 29.4497L115.198 40.6412H130.801L131.97 29.4497H114.03ZM123 37.2951C121.809 37.2951 120.844 36.3085 120.844 35.0915C120.844 33.8745 121.809 32.8879 123 32.8879C124.191 32.8879 125.156 33.8745 125.156 35.0915C125.156 36.3085 124.191 37.2951 123 37.2951Z" fill="#976A50"/>
<path d="M123 37.894C121.488 37.894 120.258 36.6368 120.258 35.0915C120.258 33.5462 121.488 32.2891 123 32.2891C124.512 32.2891 125.742 33.5462 125.742 35.0915C125.742 36.6368 124.512 37.894 123 37.894ZM123 33.4868C122.134 33.4868 121.43 34.2067 121.43 35.0916C121.43 35.9765 122.134 36.6964 123 36.6964C123.866 36.6964 124.57 35.9765 124.57 35.0916C124.57 34.2067 123.866 33.4868 123 33.4868Z" fill="#303A5B"/>
</g>
<g clip-path="url(#clip4_193_3465)">
<path d="M161.659 37.9795C161.336 37.9442 161.048 38.1826 161.014 38.5114L160.253 45.8024H149.748L148.997 38.6094C148.962 38.2805 148.674 38.0421 148.352 38.0775C148.03 38.1126 147.797 38.4076 147.831 38.7364L148.638 46.4648C148.67 46.7691 148.921 47 149.221 47H160.78C161.079 47 161.33 46.7691 161.362 46.4648L162.179 38.6385C162.213 38.3097 161.98 38.0146 161.659 37.9795Z" fill="#D8D8D8"/>
<path d="M164.375 20.6097H163.064L162.031 18.0162C161.942 17.7906 161.727 17.6431 161.489 17.6431H157.894L156.887 16.5326C156.776 16.4102 156.62 16.3407 156.457 16.3407H153.543C153.38 16.3407 153.224 16.4102 153.113 16.5326L152.106 17.6431H148.512C148.273 17.6431 148.059 17.7906 147.969 18.0162L146.937 20.6097H145.625C145.302 20.6097 145.04 20.8777 145.04 21.2085V23.7818C145.04 24.1125 145.302 24.3806 145.625 24.3806H146.333L147.068 31.4268C147.103 31.7556 147.391 31.9939 147.713 31.9586C148.035 31.9235 148.268 31.6285 148.233 31.2997L147.511 24.3806H162.489L161.764 31.3227C161.73 31.6516 161.963 31.9465 162.285 31.9816C162.306 31.984 162.327 31.9851 162.347 31.9851C162.643 31.9851 162.897 31.757 162.929 31.4498L163.667 24.3806H164.374C164.698 24.3806 164.96 24.1125 164.96 23.7818V21.2085C164.96 20.8777 164.698 20.6097 164.375 20.6097ZM148.906 18.8407H152.362C152.526 18.8407 152.681 18.7712 152.792 18.6488L153.799 17.5383H156.201L157.208 18.6488C157.319 18.7711 157.475 18.8407 157.638 18.8407H161.094L161.798 20.6097H148.202L148.906 18.8407ZM163.789 23.1829H146.211V21.8073H163.789V23.1829Z" fill="#D8D8D8"/>
<path d="M146.03 29.4497L147.198 40.6412H162.801L163.97 29.4497H146.03ZM155 37.2951C153.809 37.2951 152.844 36.3085 152.844 35.0915C152.844 33.8745 153.809 32.8879 155 32.8879C156.191 32.8879 157.156 33.8745 157.156 35.0915C157.156 36.3085 156.191 37.2951 155 37.2951Z" fill="#D8D8D8"/>
<path d="M155 37.894C153.488 37.894 152.258 36.6368 152.258 35.0915C152.258 33.5462 153.488 32.2891 155 32.2891C156.512 32.2891 157.742 33.5462 157.742 35.0915C157.742 36.6368 156.512 37.894 155 37.894ZM155 33.4868C154.134 33.4868 153.43 34.2067 153.43 35.0916C153.43 35.9765 154.134 36.6964 155 36.6964C155.866 36.6964 156.57 35.9765 156.57 35.0916C156.57 34.2067 155.866 33.4868 155 33.4868Z" fill="#D8D8D8"/>
</g>
<g clip-path="url(#clip5_193_3465)">
<path d="M193.659 37.9795C193.336 37.9442 193.048 38.1826 193.014 38.5114L192.253 45.8024H181.748L180.997 38.6094C180.962 38.2805 180.674 38.0421 180.352 38.0775C180.03 38.1126 179.797 38.4076 179.831 38.7364L180.638 46.4648C180.67 46.7691 180.921 47 181.221 47H192.78C193.079 47 193.33 46.7691 193.362 46.4648L194.179 38.6385C194.213 38.3097 193.98 38.0146 193.659 37.9795Z" fill="#D8D8D8"/>
<path d="M196.375 20.6097H195.064L194.031 18.0162C193.942 17.7906 193.727 17.6431 193.489 17.6431H189.894L188.887 16.5326C188.776 16.4102 188.62 16.3407 188.457 16.3407H185.543C185.38 16.3407 185.224 16.4102 185.113 16.5326L184.106 17.6431H180.512C180.273 17.6431 180.059 17.7906 179.969 18.0162L178.937 20.6097H177.625C177.302 20.6097 177.04 20.8777 177.04 21.2085V23.7818C177.04 24.1125 177.302 24.3806 177.625 24.3806H178.333L179.068 31.4268C179.103 31.7556 179.391 31.9939 179.713 31.9586C180.035 31.9235 180.268 31.6285 180.233 31.2997L179.511 24.3806H194.489L193.764 31.3227C193.73 31.6516 193.963 31.9465 194.285 31.9816C194.306 31.984 194.327 31.9851 194.347 31.9851C194.643 31.9851 194.897 31.757 194.929 31.4498L195.667 24.3806H196.374C196.698 24.3806 196.96 24.1125 196.96 23.7818V21.2085C196.96 20.8777 196.698 20.6097 196.375 20.6097ZM180.906 18.8407H184.362C184.526 18.8407 184.681 18.7712 184.792 18.6488L185.799 17.5383H188.201L189.208 18.6488C189.319 18.7711 189.475 18.8407 189.638 18.8407H193.094L193.798 20.6097H180.202L180.906 18.8407ZM195.789 23.1829H178.211V21.8073H195.789V23.1829Z" fill="#D8D8D8"/>
<path d="M178.03 29.4497L179.198 40.6412H194.801L195.97 29.4497H178.03ZM187 37.2951C185.809 37.2951 184.844 36.3085 184.844 35.0915C184.844 33.8745 185.809 32.8879 187 32.8879C188.191 32.8879 189.156 33.8745 189.156 35.0915C189.156 36.3085 188.191 37.2951 187 37.2951Z" fill="#D8D8D8"/>
<path d="M187 37.894C185.488 37.894 184.258 36.6368 184.258 35.0915C184.258 33.5462 185.488 32.2891 187 32.2891C188.512 32.2891 189.742 33.5462 189.742 35.0915C189.742 36.6368 188.512 37.894 187 37.894ZM187 33.4868C186.134 33.4868 185.43 34.2067 185.43 35.0916C185.43 35.9765 186.134 36.6964 187 36.6964C187.866 36.6964 188.57 35.9765 188.57 35.0916C188.57 34.2067 187.866 33.4868 187 33.4868Z" fill="#D8D8D8"/>
</g>
<g clip-path="url(#clip6_193_3465)">
<path d="M225.659 37.9795C225.336 37.9442 225.048 38.1826 225.014 38.5114L224.253 45.8024H213.748L212.997 38.6094C212.962 38.2805 212.674 38.0421 212.352 38.0775C212.03 38.1126 211.797 38.4076 211.831 38.7364L212.638 46.4648C212.67 46.7691 212.921 47 213.221 47H224.78C225.079 47 225.33 46.7691 225.362 46.4648L226.179 38.6385C226.213 38.3097 225.98 38.0146 225.659 37.9795Z" fill="#D8D8D8"/>
<path d="M228.375 20.6097H227.064L226.031 18.0162C225.942 17.7906 225.727 17.6431 225.489 17.6431H221.894L220.887 16.5326C220.776 16.4102 220.62 16.3407 220.457 16.3407H217.543C217.38 16.3407 217.224 16.4102 217.113 16.5326L216.106 17.6431H212.512C212.273 17.6431 212.059 17.7906 211.969 18.0162L210.937 20.6097H209.625C209.302 20.6097 209.04 20.8777 209.04 21.2085V23.7818C209.04 24.1125 209.302 24.3806 209.625 24.3806H210.333L211.068 31.4268C211.103 31.7556 211.391 31.9939 211.713 31.9586C212.035 31.9235 212.268 31.6285 212.233 31.2997L211.511 24.3806H226.489L225.764 31.3227C225.73 31.6516 225.963 31.9465 226.285 31.9816C226.306 31.984 226.327 31.9851 226.347 31.9851C226.643 31.9851 226.897 31.757 226.929 31.4498L227.667 24.3806H228.374C228.698 24.3806 228.96 24.1125 228.96 23.7818V21.2085C228.96 20.8777 228.698 20.6097 228.375 20.6097ZM212.906 18.8407H216.362C216.526 18.8407 216.681 18.7712 216.792 18.6488L217.799 17.5383H220.201L221.208 18.6488C221.319 18.7711 221.475 18.8407 221.638 18.8407H225.094L225.798 20.6097H212.202L212.906 18.8407ZM227.789 23.1829H210.211V21.8073H227.789V23.1829Z" fill="#D8D8D8"/>
<path d="M210.03 29.4497L211.198 40.6412H226.801L227.97 29.4497H210.03ZM219 37.2951C217.809 37.2951 216.844 36.3085 216.844 35.0915C216.844 33.8745 217.809 32.8879 219 32.8879C220.191 32.8879 221.156 33.8745 221.156 35.0915C221.156 36.3085 220.191 37.2951 219 37.2951Z" fill="#D8D8D8"/>
<path d="M219 37.894C217.488 37.894 216.258 36.6368 216.258 35.0915C216.258 33.5462 217.488 32.2891 219 32.2891C220.512 32.2891 221.742 33.5462 221.742 35.0915C221.742 36.6368 220.512 37.894 219 37.894ZM219 33.4868C218.134 33.4868 217.43 34.2067 217.43 35.0916C217.43 35.9765 218.134 36.6964 219 36.6964C219.866 36.6964 220.57 35.9765 220.57 35.0916C220.57 34.2067 219.866 33.4868 219 33.4868Z" fill="#D8D8D8"/>
</g>
<g clip-path="url(#clip7_193_3465)">
<path d="M257.659 37.9795C257.336 37.9442 257.048 38.1826 257.014 38.5114L256.253 45.8024H245.748L244.997 38.6094C244.962 38.2805 244.674 38.0421 244.352 38.0775C244.03 38.1126 243.797 38.4076 243.831 38.7364L244.638 46.4648C244.67 46.7691 244.921 47 245.221 47H256.78C257.079 47 257.33 46.7691 257.362 46.4648L258.179 38.6385C258.213 38.3097 257.98 38.0146 257.659 37.9795Z" fill="#D8D8D8"/>
<path d="M260.375 20.6097H259.064L258.031 18.0162C257.942 17.7906 257.727 17.6431 257.489 17.6431H253.894L252.887 16.5326C252.776 16.4102 252.62 16.3407 252.457 16.3407H249.543C249.38 16.3407 249.224 16.4102 249.113 16.5326L248.106 17.6431H244.512C244.273 17.6431 244.059 17.7906 243.969 18.0162L242.937 20.6097H241.625C241.302 20.6097 241.04 20.8777 241.04 21.2085V23.7818C241.04 24.1125 241.302 24.3806 241.625 24.3806H242.333L243.068 31.4268C243.103 31.7556 243.391 31.9939 243.713 31.9586C244.035 31.9235 244.268 31.6285 244.233 31.2997L243.511 24.3806H258.489L257.764 31.3227C257.73 31.6516 257.963 31.9465 258.285 31.9816C258.306 31.984 258.327 31.9851 258.347 31.9851C258.643 31.9851 258.897 31.757 258.929 31.4498L259.667 24.3806H260.374C260.698 24.3806 260.96 24.1125 260.96 23.7818V21.2085C260.96 20.8777 260.698 20.6097 260.375 20.6097ZM244.906 18.8407H248.362C248.526 18.8407 248.681 18.7712 248.792 18.6488L249.799 17.5383H252.201L253.208 18.6488C253.319 18.7711 253.475 18.8407 253.638 18.8407H257.094L257.798 20.6097H244.202L244.906 18.8407ZM259.789 23.1829H242.211V21.8073H259.789V23.1829Z" fill="#D8D8D8"/>
<path d="M242.03 29.4497L243.198 40.6412H258.801L259.97 29.4497H242.03ZM251 37.2951C249.809 37.2951 248.844 36.3085 248.844 35.0915C248.844 33.8745 249.809 32.8879 251 32.8879C252.191 32.8879 253.156 33.8745 253.156 35.0915C253.156 36.3085 252.191 37.2951 251 37.2951Z" fill="#D8D8D8"/>
<path d="M251 37.894C249.488 37.894 248.258 36.6368 248.258 35.0915C248.258 33.5462 249.488 32.2891 251 32.2891C252.512 32.2891 253.742 33.5462 253.742 35.0915C253.742 36.6368 252.512 37.894 251 37.894ZM251 33.4868C250.134 33.4868 249.43 34.2067 249.43 35.0916C249.43 35.9765 250.134 36.6964 251 36.6964C251.866 36.6964 252.57 35.9765 252.57 35.0916C252.57 34.2067 251.866 33.4868 251 33.4868Z" fill="#D8D8D8"/>
</g>
<g clip-path="url(#clip8_193_3465)">
<path d="M33.6587 84.6388C33.3364 84.6035 33.0482 84.8419 33.0139 85.1707L32.2527 92.4617H21.7476L20.9967 85.2687C20.9623 84.9398 20.6738 84.7014 20.3519 84.7368C20.0301 84.7719 19.7971 85.0669 19.8315 85.3958L20.6383 93.1241C20.67 93.4284 20.9213 93.6593 21.2209 93.6593H32.7795C33.0791 93.6593 33.3304 93.4284 33.3621 93.1241L34.1792 85.2978C34.2134 84.969 33.9804 84.6739 33.6587 84.6388Z" fill="#D8D8D8"/>
<path d="M36.3745 67.269H35.0635L34.0313 64.6755C33.9415 64.4499 33.7269 64.3024 33.4886 64.3024H29.8936L28.8869 63.1919C28.7759 63.0695 28.6202 63 28.457 63H25.543C25.3798 63 25.2241 63.0695 25.1132 63.1919L24.1065 64.3024H20.5115C20.2732 64.3024 20.0586 64.4499 19.9688 64.6755L18.9365 67.269H17.6255C17.3019 67.269 17.0396 67.537 17.0396 67.8678V70.4411C17.0396 70.7718 17.3019 71.0399 17.6255 71.0399H18.3326L19.0682 78.0861C19.1025 78.4149 19.3911 78.6532 19.7129 78.6179C20.0347 78.5828 20.2677 78.2878 20.2334 77.959L19.511 71.0399H34.4889L33.7641 77.982C33.7298 78.3109 33.9628 78.6058 34.2846 78.6409C34.3057 78.6433 34.3267 78.6444 34.3474 78.6444C34.6431 78.6444 34.8973 78.4163 34.9293 78.1091L35.6673 71.0399H36.3744C36.698 71.0399 36.9604 70.7718 36.9604 70.4411V67.8678C36.9605 67.537 36.6982 67.269 36.3745 67.269ZM20.9057 65.5H24.3624C24.5255 65.5 24.6813 65.4305 24.7921 65.3081L25.7989 64.1976H28.2011L29.2079 65.3081C29.3188 65.4304 29.4745 65.5 29.6377 65.5H33.0944L33.7984 67.269H20.2016L20.9057 65.5ZM35.7886 69.8422H18.2114V68.4666H35.7886V69.8422Z" fill="#D8D8D8"/>
<path d="M18.03 76.109L19.1984 87.3005H34.8014L35.9698 76.109H18.03ZM26.9999 83.9545C25.8091 83.9545 24.8437 82.9678 24.8437 81.7508C24.8437 80.5338 25.8091 79.5472 26.9999 79.5472C28.1908 79.5472 29.1562 80.5338 29.1562 81.7508C29.1562 82.9678 28.1908 83.9545 26.9999 83.9545Z" fill="#D8D8D8"/>
<path d="M27 84.5533C25.4879 84.5533 24.2578 83.2961 24.2578 81.7508C24.2578 80.2055 25.4879 78.9484 27 78.9484C28.5121 78.9484 29.7422 80.2055 29.7422 81.7508C29.7422 83.2961 28.5121 84.5533 27 84.5533ZM27 80.1461C26.1342 80.1461 25.4297 80.866 25.4297 81.7509C25.4297 82.6358 26.1341 83.3557 27 83.3557C27.8659 83.3557 28.5703 82.6358 28.5703 81.7509C28.5703 80.866 27.8658 80.1461 27 80.1461Z" fill="#D8D8D8"/>
</g>
<g clip-path="url(#clip9_193_3465)">
<path d="M65.6587 84.6388C65.3364 84.6035 65.0482 84.8419 65.0139 85.1707L64.2527 92.4617H53.7476L52.9967 85.2687C52.9623 84.9398 52.6738 84.7014 52.3519 84.7368C52.0301 84.7719 51.7971 85.0669 51.8315 85.3958L52.6383 93.1241C52.67 93.4284 52.9213 93.6593 53.2209 93.6593H64.7795C65.0791 93.6593 65.3304 93.4284 65.3621 93.1241L66.1792 85.2978C66.2134 84.969 65.9804 84.6739 65.6587 84.6388Z" fill="#D8D8D8"/>
<path d="M68.3745 67.269H67.0635L66.0313 64.6755C65.9415 64.4499 65.7269 64.3024 65.4886 64.3024H61.8936L60.8869 63.1919C60.7759 63.0695 60.6202 63 60.457 63H57.543C57.3798 63 57.2241 63.0695 57.1132 63.1919L56.1065 64.3024H52.5115C52.2732 64.3024 52.0586 64.4499 51.9688 64.6755L50.9365 67.269H49.6255C49.3019 67.269 49.0396 67.537 49.0396 67.8678V70.4411C49.0396 70.7718 49.3019 71.0399 49.6255 71.0399H50.3326L51.0682 78.0861C51.1025 78.4149 51.3911 78.6532 51.7129 78.6179C52.0347 78.5828 52.2677 78.2878 52.2334 77.959L51.511 71.0399H66.4889L65.7641 77.982C65.7298 78.3109 65.9628 78.6058 66.2846 78.6409C66.3057 78.6433 66.3267 78.6444 66.3474 78.6444C66.6431 78.6444 66.8973 78.4163 66.9293 78.1091L67.6673 71.0399H68.3744C68.698 71.0399 68.9604 70.7718 68.9604 70.4411V67.8678C68.9605 67.537 68.6982 67.269 68.3745 67.269ZM52.9057 65.5H56.3624C56.5255 65.5 56.6813 65.4305 56.7921 65.3081L57.7989 64.1976H60.2011L61.2079 65.3081C61.3188 65.4304 61.4745 65.5 61.6377 65.5H65.0944L65.7984 67.269H52.2016L52.9057 65.5ZM67.7886 69.8422H50.2114V68.4666H67.7886V69.8422Z" fill="#D8D8D8"/>
<path d="M50.03 76.109L51.1984 87.3005H66.8014L67.9698 76.109H50.03ZM58.9999 83.9545C57.8091 83.9545 56.8437 82.9678 56.8437 81.7508C56.8437 80.5338 57.8091 79.5472 58.9999 79.5472C60.1908 79.5472 61.1562 80.5338 61.1562 81.7508C61.1562 82.9678 60.1908 83.9545 58.9999 83.9545Z" fill="#D8D8D8"/>
<path d="M59 84.5533C57.4879 84.5533 56.2578 83.2961 56.2578 81.7508C56.2578 80.2055 57.4879 78.9484 59 78.9484C60.5121 78.9484 61.7422 80.2055 61.7422 81.7508C61.7422 83.2961 60.5121 84.5533 59 84.5533ZM59 80.1461C58.1342 80.1461 57.4297 80.866 57.4297 81.7509C57.4297 82.6358 58.1341 83.3557 59 83.3557C59.8659 83.3557 60.5703 82.6358 60.5703 81.7509C60.5703 80.866 59.8658 80.1461 59 80.1461Z" fill="#D8D8D8"/>
</g>
<g clip-path="url(#clip10_193_3465)">
<path d="M97.6587 84.6388C97.3364 84.6035 97.0482 84.8419 97.0139 85.1707L96.2527 92.4617H85.7476L84.9967 85.2687C84.9623 84.9398 84.6738 84.7014 84.3519 84.7368C84.0301 84.7719 83.7971 85.0669 83.8315 85.3958L84.6383 93.1241C84.67 93.4284 84.9213 93.6593 85.2209 93.6593H96.7795C97.0791 93.6593 97.3304 93.4284 97.3621 93.1241L98.1792 85.2978C98.2134 84.969 97.9804 84.6739 97.6587 84.6388Z" fill="#D8D8D8"/>
<path d="M100.375 67.269H99.0635L98.0313 64.6755C97.9415 64.4499 97.7269 64.3024 97.4886 64.3024H93.8936L92.8869 63.1919C92.7759 63.0695 92.6202 63 92.457 63H89.543C89.3798 63 89.2241 63.0695 89.1132 63.1919L88.1065 64.3024H84.5115C84.2732 64.3024 84.0586 64.4499 83.9688 64.6755L82.9365 67.269H81.6255C81.3019 67.269 81.0396 67.537 81.0396 67.8678V70.4411C81.0396 70.7718 81.3019 71.0399 81.6255 71.0399H82.3326L83.0682 78.0861C83.1025 78.4149 83.3911 78.6532 83.7129 78.6179C84.0347 78.5828 84.2677 78.2878 84.2334 77.959L83.511 71.0399H98.4889L97.7641 77.982C97.7298 78.3109 97.9628 78.6058 98.2846 78.6409C98.3057 78.6433 98.3267 78.6444 98.3474 78.6444C98.6431 78.6444 98.8973 78.4163 98.9293 78.1091L99.6673 71.0399H100.374C100.698 71.0399 100.96 70.7718 100.96 70.4411V67.8678C100.96 67.537 100.698 67.269 100.375 67.269ZM84.9057 65.5H88.3624C88.5255 65.5 88.6813 65.4305 88.7921 65.3081L89.7989 64.1976H92.2011L93.2079 65.3081C93.3188 65.4304 93.4745 65.5 93.6377 65.5H97.0944L97.7984 67.269H84.2016L84.9057 65.5ZM99.7886 69.8422H82.2114V68.4666H99.7886V69.8422Z" fill="#D8D8D8"/>
<path d="M82.03 76.109L83.1984 87.3005H98.8014L99.9698 76.109H82.03ZM90.9999 83.9545C89.8091 83.9545 88.8437 82.9678 88.8437 81.7508C88.8437 80.5338 89.8091 79.5472 90.9999 79.5472C92.1908 79.5472 93.1562 80.5338 93.1562 81.7508C93.1562 82.9678 92.1908 83.9545 90.9999 83.9545Z" fill="#D8D8D8"/>
<path d="M91 84.5533C89.4879 84.5533 88.2578 83.2961 88.2578 81.7508C88.2578 80.2055 89.4879 78.9484 91 78.9484C92.5121 78.9484 93.7422 80.2055 93.7422 81.7508C93.7422 83.2961 92.5121 84.5533 91 84.5533ZM91 80.1461C90.1342 80.1461 89.4297 80.866 89.4297 81.7509C89.4297 82.6358 90.1341 83.3557 91 83.3557C91.8659 83.3557 92.5703 82.6358 92.5703 81.7509C92.5703 80.866 91.8658 80.1461 91 80.1461Z" fill="#D8D8D8"/>
</g>
<g clip-path="url(#clip11_193_3465)">
<path d="M129.659 84.6388C129.336 84.6035 129.048 84.8419 129.014 85.1707L128.253 92.4617H117.748L116.997 85.2687C116.962 84.9398 116.674 84.7014 116.352 84.7368C116.03 84.7719 115.797 85.0669 115.831 85.3958L116.638 93.1241C116.67 93.4284 116.921 93.6593 117.221 93.6593H128.78C129.079 93.6593 129.33 93.4284 129.362 93.1241L130.179 85.2978C130.213 84.969 129.98 84.6739 129.659 84.6388Z" fill="#D8D8D8"/>
<path d="M132.375 67.269H131.064L130.031 64.6755C129.942 64.4499 129.727 64.3024 129.489 64.3024H125.894L124.887 63.1919C124.776 63.0695 124.62 63 124.457 63H121.543C121.38 63 121.224 63.0695 121.113 63.1919L120.106 64.3024H116.512C116.273 64.3024 116.059 64.4499 115.969 64.6755L114.937 67.269H113.625C113.302 67.269 113.04 67.537 113.04 67.8678V70.4411C113.04 70.7718 113.302 71.0399 113.625 71.0399H114.333L115.068 78.0861C115.103 78.4149 115.391 78.6532 115.713 78.6179C116.035 78.5828 116.268 78.2878 116.233 77.959L115.511 71.0399H130.489L129.764 77.982C129.73 78.3109 129.963 78.6058 130.285 78.6409C130.306 78.6433 130.327 78.6444 130.347 78.6444C130.643 78.6444 130.897 78.4163 130.929 78.1091L131.667 71.0399H132.374C132.698 71.0399 132.96 70.7718 132.96 70.4411V67.8678C132.96 67.537 132.698 67.269 132.375 67.269ZM116.906 65.5H120.362C120.526 65.5 120.681 65.4305 120.792 65.3081L121.799 64.1976H124.201L125.208 65.3081C125.319 65.4304 125.475 65.5 125.638 65.5H129.094L129.798 67.269H116.202L116.906 65.5ZM131.789 69.8422H114.211V68.4666H131.789V69.8422Z" fill="#D8D8D8"/>
<path d="M114.03 76.109L115.198 87.3005H130.801L131.97 76.109H114.03ZM123 83.9545C121.809 83.9545 120.844 82.9678 120.844 81.7508C120.844 80.5338 121.809 79.5472 123 79.5472C124.191 79.5472 125.156 80.5338 125.156 81.7508C125.156 82.9678 124.191 83.9545 123 83.9545Z" fill="#D8D8D8"/>
<path d="M123 84.5533C121.488 84.5533 120.258 83.2961 120.258 81.7508C120.258 80.2055 121.488 78.9484 123 78.9484C124.512 78.9484 125.742 80.2055 125.742 81.7508C125.742 83.2961 124.512 84.5533 123 84.5533ZM123 80.1461C122.134 80.1461 121.43 80.866 121.43 81.7509C121.43 82.6358 122.134 83.3557 123 83.3557C123.866 83.3557 124.57 82.6358 124.57 81.7509C124.57 80.866 123.866 80.1461 123 80.1461Z" fill="#D8D8D8"/>
</g>
<g clip-path="url(#clip12_193_3465)">
<path d="M161.659 84.6388C161.336 84.6035 161.048 84.8419 161.014 85.1707L160.253 92.4617H149.748L148.997 85.2687C148.962 84.9398 148.674 84.7014 148.352 84.7368C148.03 84.7719 147.797 85.0669 147.831 85.3958L148.638 93.1241C148.67 93.4284 148.921 93.6593 149.221 93.6593H160.78C161.079 93.6593 161.33 93.4284 161.362 93.1241L162.179 85.2978C162.213 84.969 161.98 84.6739 161.659 84.6388Z" fill="#D8D8D8"/>
<path d="M164.375 67.269H163.064L162.031 64.6755C161.942 64.4499 161.727 64.3024 161.489 64.3024H157.894L156.887 63.1919C156.776 63.0695 156.62 63 156.457 63H153.543C153.38 63 153.224 63.0695 153.113 63.1919L152.106 64.3024H148.512C148.273 64.3024 148.059 64.4499 147.969 64.6755L146.937 67.269H145.625C145.302 67.269 145.04 67.537 145.04 67.8678V70.4411C145.04 70.7718 145.302 71.0399 145.625 71.0399H146.333L147.068 78.0861C147.103 78.4149 147.391 78.6532 147.713 78.6179C148.035 78.5828 148.268 78.2878 148.233 77.959L147.511 71.0399H162.489L161.764 77.982C161.73 78.3109 161.963 78.6058 162.285 78.6409C162.306 78.6433 162.327 78.6444 162.347 78.6444C162.643 78.6444 162.897 78.4163 162.929 78.1091L163.667 71.0399H164.374C164.698 71.0399 164.96 70.7718 164.96 70.4411V67.8678C164.96 67.537 164.698 67.269 164.375 67.269ZM148.906 65.5H152.362C152.526 65.5 152.681 65.4305 152.792 65.3081L153.799 64.1976H156.201L157.208 65.3081C157.319 65.4304 157.475 65.5 157.638 65.5H161.094L161.798 67.269H148.202L148.906 65.5ZM163.789 69.8422H146.211V68.4666H163.789V69.8422Z" fill="#D8D8D8"/>
<path d="M146.03 76.109L147.198 87.3005H162.801L163.97 76.109H146.03ZM155 83.9545C153.809 83.9545 152.844 82.9678 152.844 81.7508C152.844 80.5338 153.809 79.5472 155 79.5472C156.191 79.5472 157.156 80.5338 157.156 81.7508C157.156 82.9678 156.191 83.9545 155 83.9545Z" fill="#D8D8D8"/>
<path d="M155 84.5533C153.488 84.5533 152.258 83.2961 152.258 81.7508C152.258 80.2055 153.488 78.9484 155 78.9484C156.512 78.9484 157.742 80.2055 157.742 81.7508C157.742 83.2961 156.512 84.5533 155 84.5533ZM155 80.1461C154.134 80.1461 153.43 80.866 153.43 81.7509C153.43 82.6358 154.134 83.3557 155 83.3557C155.866 83.3557 156.57 82.6358 156.57 81.7509C156.57 80.866 155.866 80.1461 155 80.1461Z" fill="#D8D8D8"/>
</g>
<g clip-path="url(#clip13_193_3465)">
<path d="M193.659 84.6388C193.336 84.6035 193.048 84.8419 193.014 85.1707L192.253 92.4617H181.748L180.997 85.2687C180.962 84.9398 180.674 84.7014 180.352 84.7368C180.03 84.7719 179.797 85.0669 179.831 85.3958L180.638 93.1241C180.67 93.4284 180.921 93.6593 181.221 93.6593H192.78C193.079 93.6593 193.33 93.4284 193.362 93.1241L194.179 85.2978C194.213 84.969 193.98 84.6739 193.659 84.6388Z" fill="#D8D8D8"/>
<path d="M196.375 67.269H195.064L194.031 64.6755C193.942 64.4499 193.727 64.3024 193.489 64.3024H189.894L188.887 63.1919C188.776 63.0695 188.62 63 188.457 63H185.543C185.38 63 185.224 63.0695 185.113 63.1919L184.106 64.3024H180.512C180.273 64.3024 180.059 64.4499 179.969 64.6755L178.937 67.269H177.625C177.302 67.269 177.04 67.537 177.04 67.8678V70.4411C177.04 70.7718 177.302 71.0399 177.625 71.0399H178.333L179.068 78.0861C179.103 78.4149 179.391 78.6532 179.713 78.6179C180.035 78.5828 180.268 78.2878 180.233 77.959L179.511 71.0399H194.489L193.764 77.982C193.73 78.3109 193.963 78.6058 194.285 78.6409C194.306 78.6433 194.327 78.6444 194.347 78.6444C194.643 78.6444 194.897 78.4163 194.929 78.1091L195.667 71.0399H196.374C196.698 71.0399 196.96 70.7718 196.96 70.4411V67.8678C196.96 67.537 196.698 67.269 196.375 67.269ZM180.906 65.5H184.362C184.526 65.5 184.681 65.4305 184.792 65.3081L185.799 64.1976H188.201L189.208 65.3081C189.319 65.4304 189.475 65.5 189.638 65.5H193.094L193.798 67.269H180.202L180.906 65.5ZM195.789 69.8422H178.211V68.4666H195.789V69.8422Z" fill="#D8D8D8"/>
<path d="M178.03 76.109L179.198 87.3005H194.801L195.97 76.109H178.03ZM187 83.9545C185.809 83.9545 184.844 82.9678 184.844 81.7508C184.844 80.5338 185.809 79.5472 187 79.5472C188.191 79.5472 189.156 80.5338 189.156 81.7508C189.156 82.9678 188.191 83.9545 187 83.9545Z" fill="#D8D8D8"/>
<path d="M187 84.5533C185.488 84.5533 184.258 83.2961 184.258 81.7508C184.258 80.2055 185.488 78.9484 187 78.9484C188.512 78.9484 189.742 80.2055 189.742 81.7508C189.742 83.2961 188.512 84.5533 187 84.5533ZM187 80.1461C186.134 80.1461 185.43 80.866 185.43 81.7509C185.43 82.6358 186.134 83.3557 187 83.3557C187.866 83.3557 188.57 82.6358 188.57 81.7509C188.57 80.866 187.866 80.1461 187 80.1461Z" fill="#D8D8D8"/>
</g>
<g clip-path="url(#clip14_193_3465)">
<path d="M225.659 84.6388C225.336 84.6035 225.048 84.8419 225.014 85.1707L224.253 92.4617H213.748L212.997 85.2687C212.962 84.9398 212.674 84.7014 212.352 84.7368C212.03 84.7719 211.797 85.0669 211.831 85.3958L212.638 93.1241C212.67 93.4284 212.921 93.6593 213.221 93.6593H224.78C225.079 93.6593 225.33 93.4284 225.362 93.1241L226.179 85.2978C226.213 84.969 225.98 84.6739 225.659 84.6388Z" fill="#D8D8D8"/>
<path d="M228.375 67.269H227.064L226.031 64.6755C225.942 64.4499 225.727 64.3024 225.489 64.3024H221.894L220.887 63.1919C220.776 63.0695 220.62 63 220.457 63H217.543C217.38 63 217.224 63.0695 217.113 63.1919L216.106 64.3024H212.512C212.273 64.3024 212.059 64.4499 211.969 64.6755L210.937 67.269H209.625C209.302 67.269 209.04 67.537 209.04 67.8678V70.4411C209.04 70.7718 209.302 71.0399 209.625 71.0399H210.333L211.068 78.0861C211.103 78.4149 211.391 78.6532 211.713 78.6179C212.035 78.5828 212.268 78.2878 212.233 77.959L211.511 71.0399H226.489L225.764 77.982C225.73 78.3109 225.963 78.6058 226.285 78.6409C226.306 78.6433 226.327 78.6444 226.347 78.6444C226.643 78.6444 226.897 78.4163 226.929 78.1091L227.667 71.0399H228.374C228.698 71.0399 228.96 70.7718 228.96 70.4411V67.8678C228.96 67.537 228.698 67.269 228.375 67.269ZM212.906 65.5H216.362C216.526 65.5 216.681 65.4305 216.792 65.3081L217.799 64.1976H220.201L221.208 65.3081C221.319 65.4304 221.475 65.5 221.638 65.5H225.094L225.798 67.269H212.202L212.906 65.5ZM227.789 69.8422H210.211V68.4666H227.789V69.8422Z" fill="#D8D8D8"/>
<path d="M210.03 76.109L211.198 87.3005H226.801L227.97 76.109H210.03ZM219 83.9545C217.809 83.9545 216.844 82.9678 216.844 81.7508C216.844 80.5338 217.809 79.5472 219 79.5472C220.191 79.5472 221.156 80.5338 221.156 81.7508C221.156 82.9678 220.191 83.9545 219 83.9545Z" fill="#D8D8D8"/>
<path d="M219 84.5533C217.488 84.5533 216.258 83.2961 216.258 81.7508C216.258 80.2055 217.488 78.9484 219 78.9484C220.512 78.9484 221.742 80.2055 221.742 81.7508C221.742 83.2961 220.512 84.5533 219 84.5533ZM219 80.1461C218.134 80.1461 217.43 80.866 217.43 81.7509C217.43 82.6358 218.134 83.3557 219 83.3557C219.866 83.3557 220.57 82.6358 220.57 81.7509C220.57 80.866 219.866 80.1461 219 80.1461Z" fill="#D8D8D8"/>
</g>
<g clip-path="url(#clip15_193_3465)">
<path d="M257.659 84.6388C257.336 84.6035 257.048 84.8419 257.014 85.1707L256.253 92.4617H245.748L244.997 85.2687C244.962 84.9398 244.674 84.7014 244.352 84.7368C244.03 84.7719 243.797 85.0669 243.831 85.3958L244.638 93.1241C244.67 93.4284 244.921 93.6593 245.221 93.6593H256.78C257.079 93.6593 257.33 93.4284 257.362 93.1241L258.179 85.2978C258.213 84.969 257.98 84.6739 257.659 84.6388Z" fill="#D8D8D8"/>
<path d="M260.375 67.269H259.064L258.031 64.6755C257.942 64.4499 257.727 64.3024 257.489 64.3024H253.894L252.887 63.1919C252.776 63.0695 252.62 63 252.457 63H249.543C249.38 63 249.224 63.0695 249.113 63.1919L248.106 64.3024H244.512C244.273 64.3024 244.059 64.4499 243.969 64.6755L242.937 67.269H241.625C241.302 67.269 241.04 67.537 241.04 67.8678V70.4411C241.04 70.7718 241.302 71.0399 241.625 71.0399H242.333L243.068 78.0861C243.103 78.4149 243.391 78.6532 243.713 78.6179C244.035 78.5828 244.268 78.2878 244.233 77.959L243.511 71.0399H258.489L257.764 77.982C257.73 78.3109 257.963 78.6058 258.285 78.6409C258.306 78.6433 258.327 78.6444 258.347 78.6444C258.643 78.6444 258.897 78.4163 258.929 78.1091L259.667 71.0399H260.374C260.698 71.0399 260.96 70.7718 260.96 70.4411V67.8678C260.96 67.537 260.698 67.269 260.375 67.269ZM244.906 65.5H248.362C248.526 65.5 248.681 65.4305 248.792 65.3081L249.799 64.1976H252.201L253.208 65.3081C253.319 65.4304 253.475 65.5 253.638 65.5H257.094L257.798 67.269H244.202L244.906 65.5ZM259.789 69.8422H242.211V68.4666H259.789V69.8422Z" fill="#D8D8D8"/>
<path d="M242.03 76.109L243.198 87.3005H258.801L259.97 76.109H242.03ZM251 83.9545C249.809 83.9545 248.844 82.9678 248.844 81.7508C248.844 80.5338 249.809 79.5472 251 79.5472C252.191 79.5472 253.156 80.5338 253.156 81.7508C253.156 82.9678 252.191 83.9545 251 83.9545Z" fill="#D8D8D8"/>
<path d="M251 84.5533C249.488 84.5533 248.258 83.2961 248.258 81.7508C248.258 80.2055 249.488 78.9484 251 78.9484C252.512 78.9484 253.742 80.2055 253.742 81.7508C253.742 83.2961 252.512 84.5533 251 84.5533ZM251 80.1461C250.134 80.1461 249.43 80.866 249.43 81.7509C249.43 82.6358 250.134 83.3557 251 83.3557C251.866 83.3557 252.57 82.6358 252.57 81.7509C252.57 80.866 251.866 80.1461 251 80.1461Z" fill="#D8D8D8"/>
</g>
<defs>
<clipPath id="clip0_193_3465">
<rect width="30" height="30.6593" fill="white" transform="translate(12 16.3407)"/>
</clipPath>
<clipPath id="clip1_193_3465">
<rect width="30" height="30.6593" fill="white" transform="translate(44 16.3407)"/>
</clipPath>
<clipPath id="clip2_193_3465">
<rect width="30" height="30.6593" fill="white" transform="translate(76 16.3407)"/>
</clipPath>
<clipPath id="clip3_193_3465">
<rect width="30" height="30.6593" fill="white" transform="translate(108 16.3407)"/>
</clipPath>
<clipPath id="clip4_193_3465">
<rect width="30" height="30.6593" fill="white" transform="translate(140 16.3407)"/>
</clipPath>
<clipPath id="clip5_193_3465">
<rect width="30" height="30.6593" fill="white" transform="translate(172 16.3407)"/>
</clipPath>
<clipPath id="clip6_193_3465">
<rect width="30" height="30.6593" fill="white" transform="translate(204 16.3407)"/>
</clipPath>
<clipPath id="clip7_193_3465">
<rect width="30" height="30.6593" fill="white" transform="translate(236 16.3407)"/>
</clipPath>
<clipPath id="clip8_193_3465">
<rect width="30" height="30.6593" fill="white" transform="translate(12 63)"/>
</clipPath>
<clipPath id="clip9_193_3465">
<rect width="30" height="30.6593" fill="white" transform="translate(44 63)"/>
</clipPath>
<clipPath id="clip10_193_3465">
<rect width="30" height="30.6593" fill="white" transform="translate(76 63)"/>
</clipPath>
<clipPath id="clip11_193_3465">
<rect width="30" height="30.6593" fill="white" transform="translate(108 63)"/>
</clipPath>
<clipPath id="clip12_193_3465">
<rect width="30" height="30.6593" fill="white" transform="translate(140 63)"/>
</clipPath>
<clipPath id="clip13_193_3465">
<rect width="30" height="30.6593" fill="white" transform="translate(172 63)"/>
</clipPath>
<clipPath id="clip14_193_3465">
<rect width="30" height="30.6593" fill="white" transform="translate(204 63)"/>
</clipPath>
<clipPath id="clip15_193_3465">
<rect width="30" height="30.6593" fill="white" transform="translate(236 63)"/>
</clipPath>
</defs>
</svg>
